<svg height="512pt" viewBox="0 -31 512.00016 512" width="512pt" xmlns="http://www.w3.org/2000/svg"><path d="m238 351h-158c-22.054688 0-40-17.945312-40-40v-226.761719l173.753906 108.046875c13.027344 8.101563 27.636719 12.148438 42.246094 12.148438 14.605469 0 29.214844-4.050782 42.242188-12.148438l173.757812-108.046875v121.761719c0 11.046875 8.953125 20 20 20 11.042969 0 19.996094-8.953125 19.996094-20v-126c0-44.113281-35.886719-80-79.996094-80h-352c-44.113281 0-80 35.886719-80 80v231c0 44.109375 35.886719 80 80 80h158c11.046875 0 20-8.957031 20-20 0-11.046875-8.953125-20-20-20zm194-311c8.6875 0 16.730469 2.792969 23.300781 7.519531l-178.179687 110.796875c-13.027344 8.101563-29.214844 8.101563-42.242188 0l-178.179687-110.796875c6.566406-4.726562 14.613281-7.519531 23.300781-7.519531zm71.691406 314.875-19.246094-13.871094c.039063-1 .058594-2.003906.058594-3.003906 0-1.214844-.039062-2.429688-.09375-3.640625-.019531-.394531-.042968-.785156-.066406-1.175781-.023438-.382813-.035156-.765625-.0625-1.148438l19.855469-15.164062c8.28125-6.324219 10.320312-17.945313 4.683593-26.710938l-10.914062-16.976562c-5.152344-8.019532-15.25-11.28125-24.125-7.804688l-21.527344 8.441406c-1.976562-1.472656-4.03125-2.832031-6.128906-4.117187-.074219-.042969-.148438-.089844-.222656-.136719-.910156-.550781-1.835938-1.078125-2.765625-1.59375-.273438-.148437-.539063-.300781-.8125-.449218-.832031-.445313-1.675781-.875-2.523438-1.292969-.394531-.195313-.792969-.386719-1.191406-.578125-.390625-.183594-.773437-.386719-1.171875-.566406l-4.25-23.628907c-1.714844-9.527343-10.003906-16.457031-19.683594-16.457031h-17.503906c-9.660156 0-17.9375 6.898438-19.675781 16.398438l-4.289063 23.464843c-5.980468 2.652344-11.601562 6.027344-16.757812 10.0625l-23-7.855469c-9.304688-3.175781-19.539063.878907-24.136719 9.570313l-9.816406 18.535156c-4.816407 9.09375-1.945313 20.359375 6.636719 26.035157l19.632812 12.996093c-.0625 1.265625-.089844 2.527344-.089844 3.789063 0 1.222656.035156 2.441406.09375 3.660156.015625.417969.046875.832031.070313 1.25.027343.417969.039062.835938.074219 1.253906l-19.164063 15.183594c-7.660156 6.066406-9.8125 16.785156-5.085937 25.34375l9.375 16.976562c4.863281 8.8125 15.519531 12.636719 24.875 8.925782l21.738281-8.613282c3.019531 2.273438 6.207031 4.300782 9.511719 6.117188.199218.109375.394531.222656.597656.332031.875.46875 1.757812.917969 2.648437 1.359375.371094.179688.742188.363282 1.117188.539063.40625.191406.800781.402343 1.210937.589843l4.253906 23.625c1.714844 9.527344 10.003907 16.457032 19.683594 16.457032h18c9.824219 0 18.195313-7.136719 19.746094-16.839844l3.683594-23.007812c6.460937-2.859376 12.496094-6.5625 17.984375-11.035157l22.308593 7.914063c9.832032 3.488281 20.6875-1.164063 24.945313-10.6875l8.085937-18.082032c3.871094-8.652343 1.128907-18.839843-6.566406-24.382812zm-111.597656 21.144531c-.320312-.105469-.640625-.210937-.957031-.324219-.5-.175781-.996094-.367187-1.488281-.566406-.480469-.191406-.953126-.394531-1.425782-.605468-.4375-.195313-.875-.394532-1.300781-.605469-.371094-.179688-.738281-.371094-1.101563-.5625-.355468-.1875-.703124-.386719-1.054687-.582031-.503906-.289063-1-.582032-1.488281-.890626-.425782-.269531-.851563-.539062-1.269532-.824218-.332031-.230469-.660156-.464844-.984374-.703125-.347657-.253907-.691407-.515625-1.03125-.777344-.292969-.226563-.585938-.453125-.871094-.6875-.554688-.457031-1.097656-.929687-1.628906-1.414063-.246094-.226562-.484376-.460937-.726563-.691406-.371094-.363281-.738281-.730468-1.101563-1.109375-4.847656-5.046875-8.382812-11.359375-10.0625-18.386719-.132812-.558593-.257812-1.117187-.363281-1.679687-.046875-.226563-.085937-.457031-.125-.6875-.09375-.535156-.175781-1.074219-.25-1.613281-.03125-.234375-.0625-.46875-.089843-.703125-.0625-.558594-.113282-1.117188-.152344-1.679688-.015625-.210937-.039063-.417969-.050782-.628906-.042968-.765625-.070312-1.53125-.070312-2.296875 0-.738281.023438-1.476562.066406-2.214844.003906-.09375.011719-.183594.019532-.277344.042968-.664062.097656-1.328124.171874-1.992187.007813-.058594.015626-.117187.023438-.171875.082031-.703125.183594-1.402344.300781-2.101562.007813-.039063.015625-.074219.023438-.113282.121093-.699218.261719-1.394531.421875-2.089844 1.675781-7.296874 5.347656-13.832031 10.414062-19.007812.128906-.128906.253906-.261719.382813-.394531.40625-.402344.816406-.792969 1.242187-1.179688.078125-.074219.160156-.144531.242188-.214843.851562-.765626 1.734375-1.496094 2.648437-2.183594.058594-.046875.121094-.09375.179688-.140625 1.453125-1.082031 2.984375-2.066407 4.582031-2.949219.113281-.0625.230469-.128906.347656-.191406.503906-.273438 1.011719-.535156 1.527344-.785156.164062-.078126.328125-.152344.492188-.226563.816406-.382813 1.648437-.734375 2.492187-1.0625.339844-.132813.679687-.265625 1.023437-.386719.402344-.144531.804688-.28125 1.210938-.410156.550781-.175781 1.109375-.339844 1.667969-.492188 3.355469-.917968 6.878906-1.414062 10.519531-1.414062 3.714844 0 7.3125.519531 10.726562 1.472656.558594.152344 1.105469.320313 1.652344.496094.328125.105469.648438.214844.96875.332031.484375.167969.960938.355469 1.4375.542969.449219.179688.898438.367188 1.339844.5625.480469.214844.960938.433594 1.433594.664062.347656.171876.691406.347657 1.035156.53125.382812.203126.761719.414063 1.136719.625.320312.183594.644531.363282.957031.550782.605469.367187 1.199219.75 1.78125 1.148437.289062.195313.566406.398438.847656.601563.398438.289062.796875.585937 1.1875.890625.25.195312.503906.386719.75.589843.582032.476563 1.15625.96875 1.71875 1.480469.175782.164063.347656.332031.523438.5.4375.417969.871094.84375 1.292968 1.285157 4.878907 5.0625 8.4375 11.402343 10.117188 18.464843.128906.535157.246094 1.070313.351562 1.609375.046876.246094.089844.496094.132813.742188.089844.519531.171875 1.042968.242187 1.5625.035157.25.066407.496094.09375.746094.066407.546874.113282 1.097656.152344 1.648437.015625.21875.039063.433594.050782.652344.042968.765625.070312 1.53125.070312 2.300781 0 1.382812-.070312 2.765625-.210938 4.144531-.007812.058594-.019531.121094-.027343.183594-.066407.613281-.140625 1.226563-.238281 1.835937-.039063.246094-.085938.488282-.128907.734376-.074219.414062-.140625.828124-.226562 1.234374-1.429688 6.886719-4.636719 13.121094-9.113281 18.222657-.578126.65625-1.171876 1.300781-1.785157 1.914062-.136719.140625-.285156.269531-.421875.40625-.480468.464844-.96875.914063-1.46875 1.351563-.265625.238281-.535156.472656-.808594.703125-.554687.464843-1.121093.910156-1.695312 1.34375-.359375.265625-.730469.523437-1.101562.78125-.3125.21875-.632813.429687-.953126.640625-.601562.390625-1.210937.765625-1.832031 1.125-.367187.214844-.734375.425781-1.109375.628906-.402344.214844-.808594.421875-1.21875.625-.4375.214844-.878906.421875-1.324218.621094-.46875.210937-.945313.414062-1.425782.605468-.574218.230469-1.152344.453126-1.738281.65625-.285156.101563-.574219.199219-.863281.292969-.816406.261719-1.640625.507813-2.476563.722657-3.148437.796874-6.441406 1.222656-9.832031 1.222656-3.707031 0-7.292969-.515625-10.699219-1.464844-.574219-.15625-1.140625-.328125-1.707031-.511719zm0 0"/></svg>