<?xml version="1.0" encoding="iso-8859-1"?>
<!-- Generator: Adobe Illustrator 19.0.0, SVG Export Plug-In . SVG Version: 6.00 Build 0)  -->
<svg version="1.1" id="Capa_1" xmlns="http://www.w3.org/2000/svg" xmlns:xlink="http://www.w3.org/1999/xlink" x="0px" y="0px"
	 viewBox="0 0 512 512" style="enable-background:new 0 0 512 512;" xml:space="preserve">
<g>
	<g>
		<path d="M467,51H45C20.187,51,0,71.187,0,96v320c0,24.813,20.187,45,45,45h422c24.813,0,45-20.187,45-45V96
			C512,71.187,491.813,51,467,51z M482,416c0,8.271-6.729,15-15,15H45c-8.271,0-15-6.729-15-15V171h452V416z M482,141H30V96
			c0-8.271,6.729-15,15-15h422c8.271,0,15,6.729,15,15V141z"/>
	</g>
</g>
<g>
	<g>
		<path d="M252,212h-28c-8.284,0-15,6.716-15,15s6.716,15,15,15h28c12.131,0,22,9.869,22,22s-9.869,22-22,22h-11
			c-8.284,0-15,6.716-15,15v35c0,8.284,6.716,15,15,15s15-6.716,15-15v-20.152c26.811-2.049,48-24.521,48-51.848
			C304,235.327,280.673,212,252,212z"/>
	</g>
</g>
<g>
	<g>
		<circle cx="241" cy="379" r="15"/>
	</g>
</g>
<g>
</g>
<g>
</g>
<g>
</g>
<g>
</g>
<g>
</g>
<g>
</g>
<g>
</g>
<g>
</g>
<g>
</g>
<g>
</g>
<g>
</g>
<g>
</g>
<g>
</g>
<g>
</g>
<g>
</g>
</svg>
